<svg width="50" height="50" viewBox="0 0 50 50" fill="none" xmlns="http://www.w3.org/2000/svg">
<circle cx="25" cy="25" r="25" fill="#D9D9D9"/>
<rect x="10" y="10" width="30" height="30" rx="15" fill="black"/>
<g clip-path="url(#clip0_7044_145)">
<path d="M22.1094 36.5961C23.9687 36.5961 25.4688 34.989 25.4688 32.9968V29.3975H22.1094C20.25 29.3975 18.75 31.0046 18.75 32.9968C18.75 34.989 20.25 36.5961 22.1094 36.5961Z" fill="#0ACF83"/>
<path d="M18.75 25.7976C18.75 23.8054 20.25 22.1982 22.1094 22.1982H25.4688V29.3969H22.1094C20.25 29.3969 18.75 27.7898 18.75 25.7976Z" fill="#A259FF"/>
<path d="M18.75 18.5993C18.75 16.6071 20.25 15 22.1094 15H25.4688V22.1987H22.1094C20.25 22.1987 18.75 20.5915 18.75 18.5993Z" fill="#F24E1E"/>
<path d="M25.4688 15H28.8281C30.6875 15 32.1875 16.6071 32.1875 18.5993C32.1875 20.5915 30.6875 22.1987 28.8281 22.1987H25.4688V15Z" fill="#FF7262"/>
<path d="M32.1875 25.7976C32.1875 27.7898 30.6875 29.3969 28.8281 29.3969C26.9688 29.3969 25.4688 27.7898 25.4688 25.7976C25.4688 23.8054 26.9688 22.1982 28.8281 22.1982C30.6875 22.1982 32.1875 23.8054 32.1875 25.7976Z" fill="#1ABCFE"/>
</g>
<defs>
<clipPath id="clip0_7044_145">
<rect width="20" height="21.4286" fill="white" transform="translate(15 15)"/>
</clipPath>
</defs>
</svg>
