<svg width="14" height="8" viewBox="0 0 14 8" fill="none" xmlns="http://www.w3.org/2000/svg">
<path d="M7.68442e-05 5.00004L3.84132 7.09954L3.58756 6.03102L2.66383 5.91098L2.26771 3.92515L0 5L7.68442e-05 5.00004ZM2.73188 3.70516L3.09465 5.52384L4.00273 5.64187L4.42463 7.41836L5.01143 7.73909L5.9767 7.09661L5.47165 4.96965L4.54787 4.84958L4.18255 3.01762L2.73196 3.7052L2.73188 3.70516ZM4.64665 2.79764L4.97866 4.46249L5.88677 4.58047L6.41499 6.80491L8.06848 5.70432L7.63676 3.88624L6.71301 3.76618L6.35802 1.98645L4.64661 2.79765L4.64665 2.79764ZM6.2646 0.0801116L7.44993 1.46894L6.82214 1.76648L7.14381 3.379L8.05191 3.497L8.50681 5.41257L9.89577 4.48805L9.46298 2.66551L8.53921 2.54539L8.0587 0.136328L6.26456 0.0800643L6.2646 0.0801116ZM8.56994 0.152431L8.97 2.15829L9.87809 2.2763L10.5485 5.09938L11.1448 5.79806L12.0099 3.79149L11.4595 1.47394L10.5358 1.35387L10.307 0.206881L8.56994 0.152431ZM10.8182 0.222902L10.9666 0.966736L11.8747 1.08479L12.3372 3.03225L13.5118 0.30741L10.8182 0.222902Z" fill="white"/>
</svg>
