<svg width="219" height="57" viewBox="0 0 219 57" fill="none" xmlns="http://www.w3.org/2000/svg">
<path d="M1.65 16.45C1.65 15.65 1.86667 15.1 2.3 14.8C2.73333 14.4667 3.2 14.3167 3.7 14.35C4.2 14.3833 4.63333 14.5667 5 14.9C5.4 15.2333 5.55 15.6667 5.45 16.2C5.41667 16.3667 5.36667 16.75 5.3 17.35C5.23333 17.9167 5.16667 18.65 5.1 19.55C5.03333 20.4167 4.95 21.4 4.85 22.5C4.75 23.5667 4.65 24.6833 4.55 25.85C4.85 25.5167 5.2 25.25 5.6 25.05C6 24.85 6.48333 24.75 7.05 24.75C8.01667 24.75 8.8 25.0667 9.4 25.7C10 26.3333 10.4333 27.1333 10.7 28.1C10.9667 29.0667 11.05 30.1 10.95 31.2C10.8833 32.3 10.65 33.3333 10.25 34.3C9.85 35.2667 9.28333 36.0667 8.55 36.7C7.81667 37.3333 6.95 37.65 5.95 37.65C5.08333 37.65 4.38333 37.35 3.85 36.75V38.2C3.81667 38.6667 3.6 39.0167 3.2 39.25C2.83333 39.5167 2.41667 39.65 1.95 39.65C1.51667 39.6833 1.13333 39.5833 0.8 39.35C0.433333 39.15 0.266667 38.8 0.3 38.3C0.366667 37.4667 0.45 36.4 0.55 35.1C0.65 33.7667 0.75 32.35 0.85 30.85C0.95 29.35 1.05 27.8333 1.15 26.3C1.25 24.7333 1.33333 23.2833 1.4 21.95C1.46667 20.6167 1.51667 19.4667 1.55 18.5C1.61667 17.5 1.65 16.8167 1.65 16.45ZM4.15 31.75C4.11667 31.95 4.08333 32.1667 4.05 32.4C4.05 32.6 4.05 32.8167 4.05 33.05C4.11667 33.7167 4.25 34.2833 4.45 34.75C4.68333 35.1833 5.03333 35.4333 5.5 35.5C5.8 35.5667 6.08333 35.4 6.35 35C6.61667 34.6 6.83333 34.0833 7 33.45C7.2 32.8167 7.35 32.1167 7.45 31.35C7.55 30.5833 7.6 29.8667 7.6 29.2C7.63333 28.5 7.6 27.9167 7.5 27.45C7.4 26.9833 7.25 26.7167 7.05 26.65C6.68333 26.55 6.33333 26.65 6 26.95C5.7 27.25 5.41667 27.6667 5.15 28.2C4.91667 28.7 4.7 29.2833 4.5 29.95C4.33333 30.5833 4.21667 31.1833 4.15 31.75ZM13.0617 27.6C13.0617 26.8 13.2617 26.25 13.6617 25.95C14.0951 25.65 14.5617 25.5333 15.0617 25.6C15.5617 25.6667 15.9951 25.8833 16.3617 26.25C16.7284 26.6167 16.8617 27.0667 16.7617 27.6C16.6284 28.2 16.4951 28.95 16.3617 29.85C16.2617 30.75 16.1951 31.6167 16.1617 32.45C16.1284 33.2833 16.1451 34 16.2117 34.6C16.3117 35.2 16.5117 35.5 16.8117 35.5C17.0117 35.5 17.2451 35.25 17.5117 34.75C17.8117 34.2167 18.0951 33.6 18.3617 32.9C18.6284 32.2 18.8784 31.5 19.1117 30.8C19.3451 30.1 19.4951 29.5667 19.5617 29.2C19.6617 28.8667 19.8284 28.65 20.0617 28.55C20.2951 28.4167 20.5117 28.3833 20.7117 28.45C20.9451 28.4833 21.1284 28.6 21.2617 28.8C21.4284 29 21.4617 29.25 21.3617 29.55C21.2951 29.75 21.1784 30.1333 21.0117 30.7C20.8784 31.2333 20.6951 31.8333 20.4617 32.5C20.2284 33.1667 19.9451 33.8667 19.6117 34.6C19.3117 35.3 18.9451 35.9333 18.5117 36.5C18.1117 37.0333 17.6617 37.45 17.1617 37.75C16.6617 38.05 16.1117 38.1167 15.5117 37.95C14.6117 37.6833 13.9617 37.2 13.5617 36.5C13.1951 35.7667 12.9784 34.9333 12.9117 34C12.8451 33.0333 12.8617 32 12.9617 30.9C13.0284 29.7667 13.0617 28.6667 13.0617 27.6ZM18.7617 20.75C18.8284 21.1167 18.7784 21.4667 18.6117 21.8C18.4784 22.1 18.2617 22.3833 17.9617 22.65C17.6617 22.8833 17.3117 23.0833 16.9117 23.25C16.5117 23.4167 16.0951 23.5333 15.6617 23.6C14.8284 23.7 14.0117 23.6167 13.2117 23.35C12.4117 23.0833 11.9617 22.6 11.8617 21.9C11.7284 21.1667 11.9617 20.55 12.5617 20.05C13.1284 19.5167 13.8951 19.1667 14.8617 19C15.8284 18.8333 16.6951 18.9167 17.4617 19.25C18.2284 19.55 18.6617 20.05 18.7617 20.75ZM20.4047 17.1C20.4047 16.3 20.6214 15.75 21.0547 15.45C21.488 15.1167 21.9547 14.9667 22.4547 15C22.988 15.0333 23.438 15.2167 23.8047 15.55C24.2047 15.8833 24.3547 16.3167 24.2547 16.85C24.188 17.25 24.0714 18.0333 23.9047 19.2C23.7714 20.3667 23.638 21.7167 23.5047 23.25C23.3714 24.75 23.2547 26.3167 23.1547 27.95C23.0547 29.5833 22.988 31.1 22.9547 32.5C22.9547 33.8667 23.0047 35 23.1047 35.9C23.238 36.7667 23.4714 37.2 23.8047 37.2C24.0047 37.2 24.2714 36.8333 24.6047 36.1C24.9714 35.3667 25.3214 34.5333 25.6547 33.6C26.0214 32.6667 26.3547 31.7667 26.6547 30.9C26.9547 30 27.1547 29.4167 27.2547 29.15C27.3214 28.85 27.4714 28.65 27.7047 28.55C27.938 28.45 28.1547 28.4333 28.3547 28.5C28.588 28.5333 28.7714 28.65 28.9047 28.85C29.0714 29.0167 29.1047 29.25 29.0047 29.55C28.8047 30.2167 28.538 31.15 28.2047 32.35C27.8714 33.55 27.4547 34.7333 26.9547 35.9C26.4547 37.0667 25.8547 38.0833 25.1547 38.95C24.4547 39.8167 23.6214 40.25 22.6547 40.25C21.7547 40.25 21.0714 39.7667 20.6047 38.8C20.1714 37.8667 19.8714 36.6667 19.7047 35.2C19.538 33.7333 19.488 32.1 19.5547 30.3C19.588 28.5 19.6714 26.75 19.8047 25.05C19.938 23.3167 20.0714 21.75 20.2047 20.35C20.338 18.9167 20.4047 17.8333 20.4047 17.1ZM28.1195 17.1C28.1195 16.3 28.3362 15.75 28.7695 15.45C29.2029 15.1167 29.6695 14.9667 30.1695 15C30.7029 15.0333 31.1529 15.2167 31.5195 15.55C31.9195 15.8833 32.0695 16.3167 31.9695 16.85C31.9029 17.25 31.7862 18.0333 31.6195 19.2C31.4862 20.3667 31.3529 21.7167 31.2195 23.25C31.0862 24.75 30.9695 26.3167 30.8695 27.95C30.7695 29.5833 30.7029 31.1 30.6695 32.5C30.6695 33.8667 30.7195 35 30.8195 35.9C30.9529 36.7667 31.1862 37.2 31.5195 37.2C31.7195 37.2 31.9862 36.8333 32.3195 36.1C32.6862 35.3667 33.0362 34.5333 33.3695 33.6C33.7362 32.6667 34.0695 31.7667 34.3695 30.9C34.6695 30 34.8695 29.4167 34.9695 29.15C35.0362 28.85 35.1862 28.65 35.4195 28.55C35.6529 28.45 35.8695 28.4333 36.0695 28.5C36.3029 28.5333 36.4862 28.65 36.6195 28.85C36.7862 29.0167 36.8195 29.25 36.7195 29.55C36.5195 30.2167 36.2529 31.15 35.9195 32.35C35.5862 33.55 35.1695 34.7333 34.6695 35.9C34.1695 37.0667 33.5695 38.0833 32.8695 38.95C32.1695 39.8167 31.3362 40.25 30.3695 40.25C29.4695 40.25 28.7862 39.7667 28.3195 38.8C27.8862 37.8667 27.5862 36.6667 27.4195 35.2C27.2529 33.7333 27.2029 32.1 27.2695 30.3C27.3029 28.5 27.3862 26.75 27.5195 25.05C27.6529 23.3167 27.7862 21.75 27.9195 20.35C28.0529 18.9167 28.1195 17.8333 28.1195 17.1ZM44.2344 44.05C44.2344 44.7167 44.0177 45.3167 43.5844 45.85C43.151 46.3833 42.6677 46.7833 42.1344 47.05C41.6344 47.3167 41.1677 47.4167 40.7344 47.35C40.3344 47.2833 40.1677 46.9667 40.2344 46.4C40.2677 45.9667 40.301 45.35 40.3344 44.55C40.401 43.75 40.4677 42.85 40.5344 41.85C40.601 40.85 40.651 39.7667 40.6844 38.6C40.751 37.4667 40.8177 36.3167 40.8844 35.15C40.551 36.05 40.0844 36.8167 39.4844 37.45C39.151 37.7833 38.751 37.9667 38.2844 38C37.851 38.0333 37.4177 37.95 36.9844 37.75C36.5844 37.55 36.2177 37.2667 35.8844 36.9C35.551 36.5 35.3344 36.05 35.2344 35.55C35.1344 35.05 35.0677 34.3833 35.0344 33.55C35.001 32.7167 34.9844 31.8167 34.9844 30.85C34.9844 29.8833 35.001 28.9 35.0344 27.9C35.0677 26.8667 35.0844 25.8833 35.0844 24.95C35.1177 24.35 35.3344 23.9167 35.7344 23.65C36.1677 23.35 36.6344 23.1833 37.1344 23.15C37.6344 23.0833 38.0844 23.15 38.4844 23.35C38.9177 23.5167 39.1177 23.7833 39.0844 24.15C39.0177 25.2167 38.9344 26.3667 38.8344 27.6C38.7344 28.8333 38.6344 30 38.5344 31.1C38.4677 32.1667 38.4344 33.0833 38.4344 33.85C38.4677 34.5833 38.5844 34.9833 38.7844 35.05C38.9844 35.1167 39.1677 34.9833 39.3344 34.65C39.5344 34.3167 39.7177 33.8667 39.8844 33.3C40.0844 32.7333 40.2677 32.1167 40.4344 31.45C40.601 30.75 40.7344 30.0833 40.8344 29.45C40.9677 28.7833 41.0677 28.2 41.1344 27.7C41.2344 27.1667 41.2844 26.7833 41.2844 26.55C41.6844 26.35 41.9344 26.35 42.0344 26.55C42.1677 26.75 42.2844 27.1167 42.3844 27.65C42.4177 27.7833 42.4177 28.1167 42.3844 28.65C42.3844 29.15 42.3177 29.7667 42.1844 30.5C42.0844 31.2 41.9177 31.9667 41.6844 32.8C41.4844 33.6333 41.2177 34.4167 40.8844 35.15C40.9844 33.3167 41.0677 31.5833 41.1344 29.95C41.201 28.2833 41.251 26.9667 41.2844 26C41.2844 25.6 41.4844 25.3 41.8844 25.1C42.2844 24.8667 42.7177 24.75 43.1844 24.75C43.651 24.7167 44.0677 24.8 44.4344 25C44.801 25.2 44.9677 25.5 44.9344 25.9C44.8344 26.6 44.751 27.5 44.6844 28.6C44.6177 29.7 44.551 30.8833 44.4844 32.15C44.451 33.3833 44.4177 34.65 44.3844 35.95C44.351 37.2167 44.3177 38.4 44.2844 39.5C44.2844 40.6 44.2677 41.55 44.2344 42.35C44.2344 43.1833 44.2344 43.75 44.2344 44.05ZM69.077 29.05C69.2103 28.75 69.3936 28.5667 69.627 28.5C69.8603 28.4 70.077 28.3833 70.277 28.45C70.477 28.5167 70.6103 28.65 70.677 28.85C70.777 29.0167 70.7603 29.25 70.627 29.55C70.427 30.0167 70.1436 30.7 69.777 31.6C69.4436 32.5 69.027 33.4167 68.527 34.35C68.0603 35.25 67.4936 36.05 66.827 36.75C66.1603 37.45 65.4103 37.8333 64.577 37.9C63.577 37.9667 62.8436 37.7167 62.377 37.15C61.9436 36.5833 61.6436 35.9 61.477 35.1C61.3436 34.3 61.2936 33.5 61.327 32.7C61.3936 31.9 61.4603 31.3167 61.527 30.95C61.527 30.7833 61.4436 30.7 61.277 30.7C61.1103 30.7 60.8936 30.75 60.627 30.85C60.3936 30.95 60.1436 31.1 59.877 31.3C59.6436 31.4667 59.4603 31.65 59.327 31.85C59.2936 33.1167 59.2603 34.3 59.227 35.4C59.227 36.5 59.2436 37.4167 59.277 38.15C59.277 38.6167 59.0936 38.95 58.727 39.15C58.3936 39.3833 57.9936 39.4833 57.527 39.45C57.0936 39.45 56.6936 39.3167 56.327 39.05C55.9936 38.8167 55.827 38.45 55.827 37.95C55.8603 37.1167 55.9103 36.0667 55.977 34.8C56.0103 33.5333 56.0436 32.1833 56.077 30.75C56.1103 29.3167 56.1436 27.8667 56.177 26.4C56.2103 24.9 56.227 23.5167 56.227 22.25C56.2603 20.95 56.277 19.8333 56.277 18.9C56.277 17.9333 56.277 17.2667 56.277 16.9C56.2436 16.2667 56.427 15.7667 56.827 15.4C57.2603 15 57.727 14.7333 58.227 14.6C58.727 14.4667 59.177 14.4667 59.577 14.6C59.977 14.7333 60.1436 14.9833 60.077 15.35C60.0436 15.5833 59.9936 16.1333 59.927 17C59.8603 17.8667 59.7936 18.9333 59.727 20.2C59.6603 21.4667 59.5936 22.8667 59.527 24.4C59.4603 25.9 59.4103 27.4167 59.377 28.95C60.1436 28.0167 60.8436 27.15 61.477 26.35C62.1436 25.5167 62.5436 24.7 62.677 23.9C62.7103 23.5333 62.977 23.25 63.477 23.05C64.0103 22.85 64.5436 22.75 65.077 22.75C65.6436 22.75 66.127 22.8667 66.527 23.1C66.927 23.3333 67.027 23.6667 66.827 24.1C66.5936 24.6 66.177 25.1 65.577 25.6C65.0103 26.1 64.4103 26.5833 63.777 27.05C63.1436 27.5167 62.5436 27.95 61.977 28.35C61.4103 28.75 61.027 29.1 60.827 29.4C61.0603 29.3333 61.4436 29.2167 61.977 29.05C62.5436 28.85 63.077 28.7333 63.577 28.7C64.1103 28.6333 64.527 28.7167 64.827 28.95C65.1603 29.1833 65.2103 29.6833 64.977 30.45C64.777 31.05 64.6603 31.6667 64.627 32.3C64.5936 32.9333 64.6103 33.5 64.677 34C64.7436 34.4667 64.8603 34.8333 65.027 35.1C65.227 35.3333 65.4603 35.3667 65.727 35.2C66.027 35 66.327 34.65 66.627 34.15C66.927 33.65 67.227 33.1 67.527 32.5C67.827 31.8667 68.1103 31.2333 68.377 30.6C68.6436 29.9667 68.877 29.45 69.077 29.05ZM74.8688 24.35C75.3354 24.45 75.7354 24.6667 76.0688 25C76.4354 25.3333 76.7354 25.7 76.9688 26.1C77.2354 25.8 77.5688 25.6333 77.9688 25.6C78.3688 25.5667 78.7521 25.6333 79.1188 25.8C79.4854 25.9333 79.7854 26.1667 80.0188 26.5C80.2521 26.8 80.3354 27.1667 80.2688 27.6C80.1354 28.2 80.0021 28.95 79.8688 29.85C79.7688 30.75 79.7021 31.6167 79.6688 32.45C79.6354 33.2833 79.6521 34 79.7188 34.6C79.8188 35.2 80.0021 35.5 80.2688 35.5C80.4688 35.5 80.7021 35.25 80.9688 34.75C81.2688 34.2167 81.5521 33.6 81.8187 32.9C82.1188 32.2 82.3854 31.5 82.6188 30.8C82.8521 30.1 83.0021 29.5667 83.0688 29.2C83.1688 28.8667 83.3354 28.65 83.5688 28.55C83.8021 28.4167 84.0188 28.3833 84.2188 28.45C84.4521 28.4833 84.6354 28.6 84.7688 28.8C84.9354 29 84.9688 29.25 84.8688 29.55C84.8021 29.75 84.6854 30.1333 84.5188 30.7C84.3854 31.2333 84.2021 31.8333 83.9688 32.5C83.7354 33.1667 83.4521 33.8667 83.1188 34.6C82.8188 35.3 82.4521 35.9333 82.0188 36.5C81.6188 37.0333 81.1521 37.45 80.6188 37.75C80.1188 38.05 79.5688 38.1167 78.9688 37.95C78.0021 37.6833 77.3021 37.1 76.8688 36.2C76.6021 37 76.2354 37.7167 75.7688 38.35C75.3021 39.0167 74.7021 39.5 73.9688 39.8C73.2688 40.0333 72.6521 40.0833 72.1188 39.95C71.1521 39.6833 70.3854 39.0833 69.8188 38.15C69.2521 37.2167 68.8687 36.1333 68.6687 34.9C68.4687 33.6667 68.4521 32.3833 68.6187 31.05C68.7854 29.7167 69.1188 28.5167 69.6188 27.45C70.1521 26.3833 70.8521 25.55 71.7188 24.95C72.5854 24.3167 73.6354 24.1167 74.8688 24.35ZM76.1688 29.4C76.1021 28.8333 75.9688 28.2833 75.7688 27.75C75.6021 27.2167 75.3354 26.9167 74.9688 26.85C74.4354 26.75 73.9521 26.95 73.5188 27.45C73.1188 27.9167 72.7854 28.55 72.5188 29.35C72.2521 30.15 72.0521 31.0333 71.9188 32C71.8188 32.9333 71.7854 33.8333 71.8188 34.7C71.8854 35.5333 72.0188 36.25 72.2188 36.85C72.4521 37.45 72.7854 37.7833 73.2188 37.85C73.6521 37.9167 74.0521 37.6833 74.4188 37.15C74.8188 36.6167 75.1521 35.9333 75.4188 35.1C75.7188 34.2667 75.9354 33.35 76.0688 32.35C76.2354 31.3167 76.2688 30.3333 76.1688 29.4ZM91.5801 16.45C91.5801 15.65 91.7967 15.1 92.2301 14.8C92.6634 14.4667 93.1301 14.3167 93.6301 14.35C94.1301 14.3833 94.5634 14.5667 94.9301 14.9C95.3301 15.2333 95.4801 15.6667 95.3801 16.2C95.3134 16.6 95.2134 17.3667 95.0801 18.5C94.9467 19.6 94.7967 20.8833 94.6301 22.35C94.4967 23.8167 94.3801 25.3333 94.2801 26.9C94.1801 28.4667 94.1301 29.9167 94.1301 31.25C94.1301 32.5833 94.1801 33.6833 94.2801 34.55C94.4134 35.3833 94.6467 35.8 94.9801 35.8C95.2801 35.8 95.5801 35.5167 95.8801 34.95C96.2134 34.3833 96.5301 33.7333 96.8301 33C97.1301 32.2333 97.3801 31.5 97.5801 30.8C97.8134 30.0667 97.9634 29.5333 98.0301 29.2C98.1301 28.8667 98.2801 28.65 98.4801 28.55C98.7134 28.4167 98.9301 28.3833 99.1301 28.45C99.3634 28.4833 99.5467 28.6 99.6801 28.8C99.8467 29 99.8967 29.2667 99.8301 29.6C99.7634 29.9333 99.6134 30.5833 99.3801 31.55C99.1467 32.5167 98.7967 33.5167 98.3301 34.55C97.8634 35.55 97.2467 36.45 96.4801 37.25C95.7467 38.05 94.8634 38.45 93.8301 38.45C93.0634 38.45 92.4634 38.15 92.0301 37.55C91.6301 36.9167 91.3134 36.1 91.0801 35.1C90.8134 35.7333 90.4467 36.3 89.9801 36.8C89.5467 37.3 88.9967 37.6667 88.3301 37.9C87.5967 38.1667 86.9634 38.2 86.4301 38C85.4634 37.7667 84.6967 37.25 84.1301 36.45C83.5634 35.6167 83.1801 34.6667 82.9801 33.6C82.7467 32.5 82.7134 31.3667 82.8801 30.2C83.0467 29.0333 83.3801 27.9833 83.8801 27.05C84.4134 26.1167 85.1134 25.4 85.9801 24.9C86.8467 24.3667 87.8967 24.2 89.1301 24.4C89.7967 24.5 90.3801 24.85 90.8801 25.45C91.0134 23.55 91.1634 21.7833 91.3301 20.15C91.4967 18.5167 91.5801 17.2833 91.5801 16.45ZM90.4301 28.8C90.3634 28.3333 90.2301 27.8667 90.0301 27.4C89.8634 26.9333 89.5967 26.6667 89.2301 26.6C88.6967 26.5 88.2134 26.6667 87.7801 27.1C87.3801 27.5333 87.0467 28.1 86.7801 28.8C86.5134 29.4667 86.3134 30.2167 86.1801 31.05C86.0801 31.8833 86.0467 32.6833 86.0801 33.45C86.1467 34.1833 86.2967 34.8167 86.5301 35.35C86.7634 35.85 87.0967 36.1333 87.5301 36.2C87.9634 36.2667 88.3634 36.0667 88.7301 35.6C89.1301 35.1333 89.4634 34.5333 89.7301 33.8C90.0301 33.0667 90.2467 32.25 90.3801 31.35C90.5134 30.45 90.5301 29.6 90.4301 28.8ZM107.271 44.05C107.271 44.7167 107.055 45.3167 106.621 45.85C106.188 46.3833 105.705 46.7833 105.171 47.05C104.671 47.3167 104.205 47.4167 103.771 47.35C103.371 47.2833 103.205 46.9667 103.271 46.4C103.305 45.9667 103.338 45.35 103.371 44.55C103.438 43.75 103.505 42.85 103.571 41.85C103.638 40.85 103.688 39.7667 103.721 38.6C103.788 37.4667 103.855 36.3167 103.921 35.15C103.588 36.05 103.121 36.8167 102.521 37.45C102.188 37.7833 101.788 37.9667 101.321 38C100.888 38.0333 100.455 37.95 100.021 37.75C99.6215 37.55 99.2548 37.2667 98.9215 36.9C98.5882 36.5 98.3715 36.05 98.2715 35.55C98.1715 35.05 98.1048 34.3833 98.0715 33.55C98.0382 32.7167 98.0215 31.8167 98.0215 30.85C98.0215 29.8833 98.0382 28.9 98.0715 27.9C98.1048 26.8667 98.1215 25.8833 98.1215 24.95C98.1548 24.35 98.3715 23.9167 98.7715 23.65C99.2048 23.35 99.6715 23.1833 100.171 23.15C100.671 23.0833 101.121 23.15 101.521 23.35C101.955 23.5167 102.155 23.7833 102.121 24.15C102.055 25.2167 101.971 26.3667 101.871 27.6C101.771 28.8333 101.671 30 101.571 31.1C101.505 32.1667 101.471 33.0833 101.471 33.85C101.505 34.5833 101.621 34.9833 101.821 35.05C102.021 35.1167 102.205 34.9833 102.371 34.65C102.571 34.3167 102.755 33.8667 102.921 33.3C103.121 32.7333 103.305 32.1167 103.471 31.45C103.638 30.75 103.771 30.0833 103.871 29.45C104.005 28.7833 104.105 28.2 104.171 27.7C104.271 27.1667 104.321 26.7833 104.321 26.55C104.721 26.35 104.971 26.35 105.071 26.55C105.205 26.75 105.321 27.1167 105.421 27.65C105.455 27.7833 105.455 28.1167 105.421 28.65C105.421 29.15 105.355 29.7667 105.221 30.5C105.121 31.2 104.955 31.9667 104.721 32.8C104.521 33.6333 104.255 34.4167 103.921 35.15C104.021 33.3167 104.105 31.5833 104.171 29.95C104.238 28.2833 104.288 26.9667 104.321 26C104.321 25.6 104.521 25.3 104.921 25.1C105.321 24.8667 105.755 24.75 106.221 24.75C106.688 24.7167 107.105 24.8 107.471 25C107.838 25.2 108.005 25.5 107.971 25.9C107.871 26.6 107.788 27.5 107.721 28.6C107.655 29.7 107.588 30.8833 107.521 32.15C107.488 33.3833 107.455 34.65 107.421 35.95C107.388 37.2167 107.355 38.4 107.321 39.5C107.321 40.6 107.305 41.55 107.271 42.35C107.271 43.1833 107.271 43.75 107.271 44.05ZM116.129 24.35C116.595 24.45 116.995 24.6667 117.329 25C117.695 25.3333 117.995 25.7 118.229 26.1C118.495 25.8 118.829 25.6333 119.229 25.6C119.629 25.5667 120.012 25.6333 120.379 25.8C120.745 25.9333 121.045 26.1667 121.279 26.5C121.512 26.8 121.595 27.1667 121.529 27.6C121.395 28.2 121.262 28.95 121.129 29.85C121.029 30.75 120.962 31.6167 120.929 32.45C120.895 33.2833 120.912 34 120.979 34.6C121.079 35.2 121.262 35.5 121.529 35.5C121.729 35.5 121.962 35.25 122.229 34.75C122.529 34.2167 122.812 33.6 123.079 32.9C123.379 32.2 123.645 31.5 123.879 30.8C124.112 30.1 124.262 29.5667 124.329 29.2C124.429 28.8667 124.595 28.65 124.829 28.55C125.062 28.4167 125.279 28.3833 125.479 28.45C125.712 28.4833 125.895 28.6 126.029 28.8C126.195 29 126.229 29.25 126.129 29.55C126.062 29.75 125.945 30.1333 125.779 30.7C125.645 31.2333 125.462 31.8333 125.229 32.5C124.995 33.1667 124.712 33.8667 124.379 34.6C124.079 35.3 123.712 35.9333 123.279 36.5C122.879 37.0333 122.412 37.45 121.879 37.75C121.379 38.05 120.829 38.1167 120.229 37.95C119.262 37.6833 118.562 37.1 118.129 36.2C117.862 37 117.495 37.7167 117.029 38.35C116.562 39.0167 115.962 39.5 115.229 39.8C114.529 40.0333 113.912 40.0833 113.379 39.95C112.412 39.6833 111.645 39.0833 111.079 38.15C110.512 37.2167 110.129 36.1333 109.929 34.9C109.729 33.6667 109.712 32.3833 109.879 31.05C110.045 29.7167 110.379 28.5167 110.879 27.45C111.412 26.3833 112.112 25.55 112.979 24.95C113.845 24.3167 114.895 24.1167 116.129 24.35ZM117.429 29.4C117.362 28.8333 117.229 28.2833 117.029 27.75C116.862 27.2167 116.595 26.9167 116.229 26.85C115.695 26.75 115.212 26.95 114.779 27.45C114.379 27.9167 114.045 28.55 113.779 29.35C113.512 30.15 113.312 31.0333 113.179 32C113.079 32.9333 113.045 33.8333 113.079 34.7C113.145 35.5333 113.279 36.25 113.479 36.85C113.712 37.45 114.045 37.7833 114.479 37.85C114.912 37.9167 115.312 37.6833 115.679 37.15C116.079 36.6167 116.412 35.9333 116.679 35.1C116.979 34.2667 117.195 33.35 117.329 32.35C117.495 31.3167 117.529 30.3333 117.429 29.4ZM124.49 26.15C124.623 25.4167 124.94 24.85 125.44 24.45C125.94 24.0167 126.44 23.7333 126.94 23.6C127.473 23.4333 127.923 23.4167 128.29 23.55C128.69 23.65 128.84 23.9 128.74 24.3C128.64 24.7667 128.523 25.4 128.39 26.2C128.257 27 128.14 27.8167 128.04 28.65C127.94 29.4833 127.857 30.2833 127.79 31.05C127.723 31.7833 127.69 32.3167 127.69 32.65C127.823 32.1833 127.99 31.7 128.19 31.2C128.39 30.7 128.59 30.2167 128.79 29.75C129.023 29.25 129.257 28.8 129.49 28.4C129.723 28 129.94 27.6833 130.14 27.45C130.373 27.1167 130.723 26.8667 131.19 26.7C131.69 26.5 132.14 26.4 132.54 26.4C132.973 26.4 133.323 26.5167 133.59 26.75C133.857 26.9833 133.907 27.3167 133.74 27.75C133.673 27.95 133.607 28.3333 133.54 28.9C133.473 29.4667 133.407 30.0833 133.34 30.75C133.54 30.2833 133.807 29.7667 134.14 29.2C134.473 28.6333 134.807 28.1 135.14 27.6C135.473 27.0667 135.773 26.5833 136.04 26.15C136.34 25.7167 136.573 25.4 136.74 25.2C136.973 24.8667 137.323 24.6 137.79 24.4C138.257 24.1667 138.707 24.05 139.14 24.05C139.573 24.05 139.94 24.1667 140.24 24.4C140.54 24.6 140.673 24.95 140.64 25.45C140.607 25.6833 140.54 26.0833 140.44 26.65C140.373 27.2167 140.273 27.8667 140.14 28.6C140.007 29.3333 139.873 30.1 139.74 30.9C139.64 31.7 139.54 32.4333 139.44 33.1C139.373 33.7333 139.323 34.2667 139.29 34.7C139.29 35.1333 139.357 35.35 139.49 35.35C139.69 35.35 139.957 35.1167 140.29 34.65C140.623 34.1833 140.94 33.6333 141.24 33C141.573 32.3333 141.873 31.65 142.14 30.95C142.44 30.25 142.657 29.6833 142.79 29.25C142.89 28.95 143.04 28.75 143.24 28.65C143.473 28.5167 143.69 28.4833 143.89 28.55C144.09 28.5833 144.257 28.7 144.39 28.9C144.523 29.0667 144.557 29.3 144.49 29.6C144.39 30.0667 144.157 30.7333 143.79 31.6C143.457 32.4333 143.04 33.2833 142.54 34.15C142.04 35.0167 141.49 35.8 140.89 36.5C140.29 37.2 139.673 37.6 139.04 37.7C138.34 37.8333 137.773 37.75 137.34 37.45C136.94 37.15 136.64 36.7167 136.44 36.15C136.273 35.5833 136.173 34.95 136.14 34.25C136.107 33.5167 136.123 32.8 136.19 32.1C136.257 31.4 136.34 30.7833 136.44 30.25C136.54 29.6833 136.64 29.2667 136.74 29C136.573 29.0667 136.323 29.3833 135.99 29.95C135.657 30.5167 135.307 31.15 134.94 31.85C134.607 32.5167 134.29 33.1833 133.99 33.85C133.69 34.4833 133.49 34.9167 133.39 35.15V35.1C133.323 35.3 133.157 35.5333 132.89 35.8C132.657 36.0333 132.373 36.2333 132.04 36.4C131.707 36.5333 131.39 36.6 131.09 36.6C130.823 36.6 130.64 36.4333 130.54 36.1C130.44 35.7667 130.373 35.3167 130.34 34.75C130.307 34.15 130.29 33.5833 130.29 33.05C130.29 32.4833 130.29 31.9833 130.29 31.55C130.323 31.0833 130.323 30.8 130.29 30.7C130.123 30.7667 129.94 31.0667 129.74 31.6C129.54 32.1333 129.323 32.7333 129.09 33.4C128.89 34.0667 128.707 34.75 128.54 35.45C128.373 36.15 128.257 36.7 128.19 37.1C128.123 37.5333 127.89 37.85 127.49 38.05C127.123 38.2833 126.707 38.4 126.24 38.4C125.807 38.4 125.407 38.2833 125.04 38.05C124.707 37.8167 124.557 37.45 124.59 36.95C124.623 36.3833 124.607 35.6333 124.54 34.7C124.507 33.7333 124.457 32.7333 124.39 31.7C124.357 30.6667 124.34 29.65 124.34 28.65C124.34 27.65 124.39 26.8167 124.49 26.15ZM148.697 24.35C149.164 24.45 149.564 24.6667 149.897 25C150.264 25.3333 150.564 25.7 150.797 26.1C151.064 25.8 151.397 25.6333 151.797 25.6C152.197 25.5667 152.58 25.6333 152.947 25.8C153.314 25.9333 153.614 26.1667 153.847 26.5C154.08 26.8 154.164 27.1667 154.097 27.6C153.964 28.2 153.83 28.95 153.697 29.85C153.597 30.75 153.53 31.6167 153.497 32.45C153.464 33.2833 153.48 34 153.547 34.6C153.647 35.2 153.83 35.5 154.097 35.5C154.297 35.5 154.53 35.25 154.797 34.75C155.097 34.2167 155.38 33.6 155.647 32.9C155.947 32.2 156.214 31.5 156.447 30.8C156.68 30.1 156.83 29.5667 156.897 29.2C156.997 28.8667 157.164 28.65 157.397 28.55C157.63 28.4167 157.847 28.3833 158.047 28.45C158.28 28.4833 158.464 28.6 158.597 28.8C158.764 29 158.797 29.25 158.697 29.55C158.63 29.75 158.514 30.1333 158.347 30.7C158.214 31.2333 158.03 31.8333 157.797 32.5C157.564 33.1667 157.28 33.8667 156.947 34.6C156.647 35.3 156.28 35.9333 155.847 36.5C155.447 37.0333 154.98 37.45 154.447 37.75C153.947 38.05 153.397 38.1167 152.797 37.95C151.83 37.6833 151.13 37.1 150.697 36.2C150.43 37 150.064 37.7167 149.597 38.35C149.13 39.0167 148.53 39.5 147.797 39.8C147.097 40.0333 146.48 40.0833 145.947 39.95C144.98 39.6833 144.214 39.0833 143.647 38.15C143.08 37.2167 142.697 36.1333 142.497 34.9C142.297 33.6667 142.28 32.3833 142.447 31.05C142.614 29.7167 142.947 28.5167 143.447 27.45C143.98 26.3833 144.68 25.55 145.547 24.95C146.414 24.3167 147.464 24.1167 148.697 24.35ZM149.997 29.4C149.93 28.8333 149.797 28.2833 149.597 27.75C149.43 27.2167 149.164 26.9167 148.797 26.85C148.264 26.75 147.78 26.95 147.347 27.45C146.947 27.9167 146.614 28.55 146.347 29.35C146.08 30.15 145.88 31.0333 145.747 32C145.647 32.9333 145.614 33.8333 145.647 34.7C145.714 35.5333 145.847 36.25 146.047 36.85C146.28 37.45 146.614 37.7833 147.047 37.85C147.48 37.9167 147.88 37.6833 148.247 37.15C148.647 36.6167 148.98 35.9333 149.247 35.1C149.547 34.2667 149.764 33.35 149.897 32.35C150.064 31.3167 150.097 30.3333 149.997 29.4ZM157.458 21.6C157.458 21.3667 157.458 21.15 157.458 20.95C157.492 20.7167 157.508 20.5167 157.508 20.35C157.508 19.55 157.725 19 158.158 18.7C158.592 18.3667 159.058 18.2167 159.558 18.25C160.058 18.2833 160.492 18.4667 160.858 18.8C161.258 19.1333 161.408 19.5667 161.308 20.1L161.058 21.4H162.258C162.892 21.4 163.342 21.5167 163.608 21.75C163.908 21.95 164.058 22.1833 164.058 22.45C164.058 22.6833 163.908 22.9 163.608 23.1C163.308 23.3 162.892 23.4 162.358 23.4H160.858C160.725 24.6 160.608 25.9333 160.508 27.4C160.408 28.8333 160.342 30.2 160.308 31.5C160.275 32.7667 160.292 33.8333 160.358 34.7C160.425 35.5333 160.575 35.95 160.808 35.95C161.008 35.95 161.275 35.65 161.608 35.05C161.975 34.45 162.342 33.7667 162.708 33C163.075 32.2 163.408 31.4333 163.708 30.7C164.008 29.9333 164.208 29.4167 164.308 29.15C164.375 28.85 164.525 28.65 164.758 28.55C164.992 28.45 165.208 28.4333 165.408 28.5C165.642 28.5333 165.825 28.65 165.958 28.85C166.125 29.0167 166.158 29.25 166.058 29.55C165.858 30.2167 165.592 31.0833 165.258 32.15C164.925 33.2167 164.508 34.25 164.008 35.25C163.508 36.25 162.908 37.1167 162.208 37.85C161.508 38.5833 160.675 38.95 159.708 38.95C159.075 38.95 158.558 38.7 158.158 38.2C157.758 37.7 157.458 37.05 157.258 36.25C157.058 35.4167 156.942 34.4667 156.908 33.4C156.842 32.3333 156.825 31.2333 156.858 30.1C156.892 28.9667 156.958 27.8333 157.058 26.7C157.158 25.5333 157.242 24.4667 157.308 23.5H156.108C155.575 23.5 155.175 23.4 154.908 23.2C154.608 23 154.458 22.7833 154.458 22.55C154.425 22.3167 154.542 22.1 154.808 21.9C155.075 21.7 155.508 21.6 156.108 21.6H157.458ZM164.331 27.6C164.331 26.8 164.531 26.25 164.931 25.95C165.365 25.65 165.831 25.5333 166.331 25.6C166.831 25.6667 167.265 25.8833 167.631 26.25C167.998 26.6167 168.131 27.0667 168.031 27.6C167.898 28.2 167.765 28.95 167.631 29.85C167.531 30.75 167.465 31.6167 167.431 32.45C167.398 33.2833 167.415 34 167.481 34.6C167.581 35.2 167.781 35.5 168.081 35.5C168.281 35.5 168.515 35.25 168.781 34.75C169.081 34.2167 169.365 33.6 169.631 32.9C169.898 32.2 170.148 31.5 170.381 30.8C170.615 30.1 170.765 29.5667 170.831 29.2C170.931 28.8667 171.098 28.65 171.331 28.55C171.565 28.4167 171.781 28.3833 171.981 28.45C172.215 28.4833 172.398 28.6 172.531 28.8C172.698 29 172.731 29.25 172.631 29.55C172.565 29.75 172.448 30.1333 172.281 30.7C172.148 31.2333 171.965 31.8333 171.731 32.5C171.498 33.1667 171.215 33.8667 170.881 34.6C170.581 35.3 170.215 35.9333 169.781 36.5C169.381 37.0333 168.931 37.45 168.431 37.75C167.931 38.05 167.381 38.1167 166.781 37.95C165.881 37.6833 165.231 37.2 164.831 36.5C164.465 35.7667 164.248 34.9333 164.181 34C164.115 33.0333 164.131 32 164.231 30.9C164.298 29.7667 164.331 28.6667 164.331 27.6ZM170.031 20.75C170.098 21.1167 170.048 21.4667 169.881 21.8C169.748 22.1 169.531 22.3833 169.231 22.65C168.931 22.8833 168.581 23.0833 168.181 23.25C167.781 23.4167 167.365 23.5333 166.931 23.6C166.098 23.7 165.281 23.6167 164.481 23.35C163.681 23.0833 163.231 22.6 163.131 21.9C162.998 21.1667 163.231 20.55 163.831 20.05C164.398 19.5167 165.165 19.1667 166.131 19C167.098 18.8333 167.965 18.9167 168.731 19.25C169.498 19.55 169.931 20.05 170.031 20.75ZM170.974 26.15C171.108 25.4167 171.424 24.85 171.924 24.45C172.424 24.0167 172.924 23.7333 173.424 23.6C173.958 23.4333 174.408 23.4167 174.774 23.55C175.174 23.65 175.324 23.9 175.224 24.3C175.124 24.7667 175.008 25.4 174.874 26.2C174.741 27 174.624 27.8167 174.524 28.65C174.424 29.4833 174.341 30.2833 174.274 31.05C174.208 31.7833 174.174 32.3167 174.174 32.65C174.308 32.1833 174.474 31.7 174.674 31.2C174.874 30.7 175.074 30.2167 175.274 29.75C175.508 29.25 175.741 28.8 175.974 28.4C176.208 28 176.424 27.6833 176.624 27.45C176.858 27.1167 177.208 26.8667 177.674 26.7C178.174 26.5 178.624 26.4 179.024 26.4C179.458 26.4 179.808 26.5167 180.074 26.75C180.341 26.9833 180.391 27.3167 180.224 27.75C180.158 27.95 180.091 28.3333 180.024 28.9C179.958 29.4667 179.891 30.0833 179.824 30.75C180.024 30.2833 180.291 29.7667 180.624 29.2C180.958 28.6333 181.291 28.1 181.624 27.6C181.958 27.0667 182.258 26.5833 182.524 26.15C182.824 25.7167 183.058 25.4 183.224 25.2C183.458 24.8667 183.808 24.6 184.274 24.4C184.741 24.1667 185.191 24.05 185.624 24.05C186.058 24.05 186.424 24.1667 186.724 24.4C187.024 24.6 187.158 24.95 187.124 25.45C187.091 25.6833 187.024 26.0833 186.924 26.65C186.858 27.2167 186.758 27.8667 186.624 28.6C186.491 29.3333 186.358 30.1 186.224 30.9C186.124 31.7 186.024 32.4333 185.924 33.1C185.858 33.7333 185.808 34.2667 185.774 34.7C185.774 35.1333 185.841 35.35 185.974 35.35C186.174 35.35 186.441 35.1167 186.774 34.65C187.108 34.1833 187.424 33.6333 187.724 33C188.058 32.3333 188.358 31.65 188.624 30.95C188.924 30.25 189.141 29.6833 189.274 29.25C189.374 28.95 189.524 28.75 189.724 28.65C189.958 28.5167 190.174 28.4833 190.374 28.55C190.574 28.5833 190.741 28.7 190.874 28.9C191.008 29.0667 191.041 29.3 190.974 29.6C190.874 30.0667 190.641 30.7333 190.274 31.6C189.941 32.4333 189.524 33.2833 189.024 34.15C188.524 35.0167 187.974 35.8 187.374 36.5C186.774 37.2 186.158 37.6 185.524 37.7C184.824 37.8333 184.258 37.75 183.824 37.45C183.424 37.15 183.124 36.7167 182.924 36.15C182.758 35.5833 182.658 34.95 182.624 34.25C182.591 33.5167 182.608 32.8 182.674 32.1C182.741 31.4 182.824 30.7833 182.924 30.25C183.024 29.6833 183.124 29.2667 183.224 29C183.058 29.0667 182.808 29.3833 182.474 29.95C182.141 30.5167 181.791 31.15 181.424 31.85C181.091 32.5167 180.774 33.1833 180.474 33.85C180.174 34.4833 179.974 34.9167 179.874 35.15V35.1C179.808 35.3 179.641 35.5333 179.374 35.8C179.141 36.0333 178.858 36.2333 178.524 36.4C178.191 36.5333 177.874 36.6 177.574 36.6C177.308 36.6 177.124 36.4333 177.024 36.1C176.924 35.7667 176.858 35.3167 176.824 34.75C176.791 34.15 176.774 33.5833 176.774 33.05C176.774 32.4833 176.774 31.9833 176.774 31.55C176.808 31.0833 176.808 30.8 176.774 30.7C176.608 30.7667 176.424 31.0667 176.224 31.6C176.024 32.1333 175.808 32.7333 175.574 33.4C175.374 34.0667 175.191 34.75 175.024 35.45C174.858 36.15 174.741 36.7 174.674 37.1C174.608 37.5333 174.374 37.85 173.974 38.05C173.608 38.2833 173.191 38.4 172.724 38.4C172.291 38.4 171.891 38.2833 171.524 38.05C171.191 37.8167 171.041 37.45 171.074 36.95C171.108 36.3833 171.091 35.6333 171.024 34.7C170.991 33.7333 170.941 32.7333 170.874 31.7C170.841 30.6667 170.824 29.65 170.824 28.65C170.824 27.65 170.874 26.8167 170.974 26.15ZM189.931 16.45C189.931 15.65 190.148 15.1 190.581 14.8C191.015 14.4667 191.481 14.3167 191.981 14.35C192.481 14.3833 192.915 14.5667 193.281 14.9C193.681 15.2333 193.831 15.6667 193.731 16.2C193.698 16.3667 193.648 16.75 193.581 17.35C193.515 17.9167 193.448 18.65 193.381 19.55C193.315 20.4167 193.231 21.4 193.131 22.5C193.031 23.5667 192.931 24.6833 192.831 25.85C193.131 25.5167 193.481 25.25 193.881 25.05C194.281 24.85 194.765 24.75 195.331 24.75C196.298 24.75 197.081 25.0667 197.681 25.7C198.281 26.3333 198.715 27.1333 198.981 28.1C199.248 29.0667 199.331 30.1 199.231 31.2C199.165 32.3 198.931 33.3333 198.531 34.3C198.131 35.2667 197.565 36.0667 196.831 36.7C196.098 37.3333 195.231 37.65 194.231 37.65C193.365 37.65 192.665 37.35 192.131 36.75V38.2C192.098 38.6667 191.881 39.0167 191.481 39.25C191.115 39.5167 190.698 39.65 190.231 39.65C189.798 39.6833 189.415 39.5833 189.081 39.35C188.715 39.15 188.548 38.8 188.581 38.3C188.648 37.4667 188.731 36.4 188.831 35.1C188.931 33.7667 189.031 32.35 189.131 30.85C189.231 29.35 189.331 27.8333 189.431 26.3C189.531 24.7333 189.615 23.2833 189.681 21.95C189.748 20.6167 189.798 19.4667 189.831 18.5C189.898 17.5 189.931 16.8167 189.931 16.45ZM192.431 31.75C192.398 31.95 192.365 32.1667 192.331 32.4C192.331 32.6 192.331 32.8167 192.331 33.05C192.398 33.7167 192.531 34.2833 192.731 34.75C192.965 35.1833 193.315 35.4333 193.781 35.5C194.081 35.5667 194.365 35.4 194.631 35C194.898 34.6 195.115 34.0833 195.281 33.45C195.481 32.8167 195.631 32.1167 195.731 31.35C195.831 30.5833 195.881 29.8667 195.881 29.2C195.915 28.5 195.881 27.9167 195.781 27.45C195.681 26.9833 195.531 26.7167 195.331 26.65C194.965 26.55 194.615 26.65 194.281 26.95C193.981 27.25 193.698 27.6667 193.431 28.2C193.198 28.7 192.981 29.2833 192.781 29.95C192.615 30.5833 192.498 31.1833 192.431 31.75ZM207.193 24.35C207.66 24.45 208.06 24.6667 208.393 25C208.76 25.3333 209.06 25.7 209.293 26.1C209.56 25.8 209.893 25.6333 210.293 25.6C210.693 25.5667 211.076 25.6333 211.443 25.8C211.81 25.9333 212.11 26.1667 212.343 26.5C212.576 26.8 212.66 27.1667 212.593 27.6C212.46 28.2 212.326 28.95 212.193 29.85C212.093 30.75 212.026 31.6167 211.993 32.45C211.96 33.2833 211.976 34 212.043 34.6C212.143 35.2 212.326 35.5 212.593 35.5C212.793 35.5 213.026 35.25 213.293 34.75C213.593 34.2167 213.876 33.6 214.143 32.9C214.443 32.2 214.71 31.5 214.943 30.8C215.176 30.1 215.326 29.5667 215.393 29.2C215.493 28.8667 215.66 28.65 215.893 28.55C216.126 28.4167 216.343 28.3833 216.543 28.45C216.776 28.4833 216.96 28.6 217.093 28.8C217.26 29 217.293 29.25 217.193 29.55C217.126 29.75 217.01 30.1333 216.843 30.7C216.71 31.2333 216.526 31.8333 216.293 32.5C216.06 33.1667 215.776 33.8667 215.443 34.6C215.143 35.3 214.776 35.9333 214.343 36.5C213.943 37.0333 213.476 37.45 212.943 37.75C212.443 38.05 211.893 38.1167 211.293 37.95C210.326 37.6833 209.626 37.1 209.193 36.2C208.926 37 208.56 37.7167 208.093 38.35C207.626 39.0167 207.026 39.5 206.293 39.8C205.593 40.0333 204.976 40.0833 204.443 39.95C203.476 39.6833 202.71 39.0833 202.143 38.15C201.576 37.2167 201.193 36.1333 200.993 34.9C200.793 33.6667 200.776 32.3833 200.943 31.05C201.11 29.7167 201.443 28.5167 201.943 27.45C202.476 26.3833 203.176 25.55 204.043 24.95C204.91 24.3167 205.96 24.1167 207.193 24.35ZM208.493 29.4C208.426 28.8333 208.293 28.2833 208.093 27.75C207.926 27.2167 207.66 26.9167 207.293 26.85C206.76 26.75 206.276 26.95 205.843 27.45C205.443 27.9167 205.11 28.55 204.843 29.35C204.576 30.15 204.376 31.0333 204.243 32C204.143 32.9333 204.11 33.8333 204.143 34.7C204.21 35.5333 204.343 36.25 204.543 36.85C204.776 37.45 205.11 37.7833 205.543 37.85C205.976 37.9167 206.376 37.6833 206.743 37.15C207.143 36.6167 207.476 35.9333 207.743 35.1C208.043 34.2667 208.26 33.35 208.393 32.35C208.56 31.3167 208.593 30.3333 208.493 29.4Z" fill="white"/>
<path d="M0.7885 48.8912H1.992V55H0.7885V48.8912ZM3.56868 48.8912H4.77218V53.838H7.64398V55H3.56868V48.8912ZM8.88586 48.8912H10.0894V53.838H12.9612V55H8.88586V48.8912ZM15.2821 52.7424C15.2821 52.9361 15.3402 53.1214 15.4564 53.2985C15.5726 53.4756 15.7247 53.6194 15.9129 53.7301C16.1065 53.8408 16.3168 53.8961 16.5437 53.8961C16.7927 53.8961 17.014 53.8408 17.2077 53.7301C17.4013 53.6194 17.5535 53.4756 17.6642 53.2985C17.7804 53.1214 17.8385 52.9361 17.8385 52.7424V48.8912H19.0254V52.7673C19.0254 53.2155 18.9147 53.6139 18.6934 53.9625C18.472 54.3056 18.1732 54.5767 17.797 54.7759C17.4207 54.9696 17.0029 55.0664 16.5437 55.0664C16.0899 55.0664 15.6749 54.9696 15.2987 54.7759C14.9279 54.5767 14.6319 54.3056 14.4106 53.9625C14.1892 53.6139 14.0786 53.2155 14.0786 52.7673V48.8912H15.2821V52.7424ZM20.4767 55V48.6422H20.485L23.8797 53.4562L23.3651 53.34L26.7515 48.6422H26.7681V55H25.5646V51.3563L25.6393 51.9788L23.5726 54.917H23.556L21.4312 51.9788L21.6387 51.4061V55H20.4767ZM28.3471 48.8912H29.5506V55H28.3471V48.8912ZM36.597 55.249L31.9656 51.0658L32.3225 51.265L32.3474 55H31.1273V48.6505H31.1771L35.7089 52.8171L35.4433 52.7009L35.4184 48.8912H36.6302V55.249H36.597ZM37.5144 55L40.27 48.6505H40.3364L43.092 55H41.6976L39.938 50.5346L40.8095 49.937L38.7013 55H37.5144ZM39.3985 52.7922H41.2328L41.6561 53.8048H39.025L39.3985 52.7922ZM43.0731 48.8912H47.1899V50.0532H45.7042V55H44.5007V50.0532H43.0731V48.8912ZM48.3514 48.8912H49.5549V55H48.3514V48.8912ZM56.6013 55.249L51.9699 51.0658L52.3268 51.265L52.3517 55H51.1316V48.6505H51.1814L55.7132 52.8171L55.4476 52.7009L55.4227 48.8912H56.6345V55.249H56.6013ZM63.1627 54.3858C63.0908 54.4633 62.9774 54.5435 62.8224 54.6265C62.6675 54.704 62.4877 54.7759 62.2829 54.8423C62.0837 54.9087 61.879 54.9613 61.6687 55C61.4585 55.0443 61.2593 55.0664 61.0711 55.0664C60.4127 55.0664 59.84 54.9391 59.353 54.6846C58.8661 54.4301 58.4898 54.0815 58.2242 53.6388C57.9642 53.1961 57.8341 52.6898 57.8341 52.1199C57.8341 51.561 57.9171 51.0769 58.0831 50.6674C58.2547 50.2524 58.4843 49.9093 58.772 49.6382C59.0653 49.3615 59.4001 49.1568 59.7763 49.024C60.1581 48.8912 60.5565 48.8248 60.9715 48.8248C61.3644 48.8248 61.7241 48.8691 62.0505 48.9576C62.377 49.0406 62.6537 49.1457 62.8805 49.273L62.4904 50.3935C62.3908 50.3382 62.258 50.2828 62.092 50.2275C61.926 50.1722 61.7573 50.1279 61.5857 50.0947C61.4142 50.056 61.262 50.0366 61.1292 50.0366C60.6921 50.0366 60.3186 50.1113 60.0087 50.2607C59.7044 50.4046 59.472 50.6231 59.3115 50.9164C59.1566 51.2097 59.0791 51.5749 59.0791 52.012C59.0791 52.3938 59.1649 52.723 59.3364 52.9997C59.508 53.2764 59.7459 53.4894 60.0502 53.6388C60.3601 53.7882 60.7115 53.8629 61.1043 53.8629C61.2759 53.8629 61.4336 53.8518 61.5774 53.8297C61.7213 53.802 61.843 53.7605 61.9426 53.7052V52.9665H60.8885V51.8045H63.1627V54.3858ZM65.6079 48.8912H66.8114V55H65.6079V48.8912ZM68.3881 55V48.8912H70.2141C70.8283 48.8912 71.3512 48.9825 71.7828 49.1651C72.2144 49.3477 72.5602 49.5912 72.8203 49.8955C73.0859 50.1998 73.2796 50.5401 73.4013 50.9164C73.523 51.2927 73.5839 51.6717 73.5839 52.0535C73.5839 52.5072 73.5009 52.9167 73.3349 53.2819C73.1744 53.6416 72.9531 53.9514 72.6709 54.2115C72.3887 54.466 72.0622 54.6625 71.6915 54.8008C71.3208 54.9336 70.9279 55 70.5129 55H68.3881ZM69.5916 53.838H70.3054C70.7149 53.838 71.0718 53.7688 71.3761 53.6305C71.6804 53.4866 71.9156 53.2764 72.0816 52.9997C72.2531 52.723 72.3389 52.38 72.3389 51.9705C72.3389 51.5721 72.2725 51.2484 72.1397 50.9994C72.0124 50.7449 71.852 50.5484 71.6583 50.4101C71.4702 50.2718 71.2765 50.1777 71.0773 50.1279C70.8781 50.0726 70.7093 50.0449 70.571 50.0449H69.5916V53.838ZM74.7914 48.8912H78.958V50.0532H75.9949V51.3563H78.6177V52.5183H75.9949V53.838H79.0742V55H74.7914V48.8912ZM79.6305 55L82.3861 48.6505H82.4525L85.2081 55H83.8137L82.0541 50.5346L82.9256 49.937L80.8174 55H79.6305ZM81.5146 52.7922H83.3489L83.7722 53.8048H81.1411L81.5146 52.7922ZM89.3605 50.3686C89.1281 50.2413 88.8901 50.1362 88.6467 50.0532C88.4087 49.9702 88.1846 49.9287 87.9744 49.9287C87.7143 49.9287 87.5096 49.9813 87.3602 50.0864C87.2108 50.1915 87.1361 50.3492 87.1361 50.5595C87.1361 50.7034 87.1914 50.8334 87.3021 50.9496C87.4183 51.0603 87.5649 51.1599 87.742 51.2484C87.9246 51.3369 88.1127 51.4172 88.3064 51.4891C88.5443 51.5776 88.7739 51.6911 88.9953 51.8294C89.2166 51.9622 89.3992 52.1476 89.5431 52.3855C89.6869 52.6179 89.7589 52.9278 89.7589 53.3151C89.7589 53.625 89.6786 53.9127 89.5182 54.1783C89.3577 54.4439 89.1225 54.6597 88.8127 54.8257C88.5028 54.9862 88.121 55.0664 87.6673 55.0664C87.3187 55.0664 86.9618 55.0138 86.5966 54.9087C86.2369 54.8036 85.8966 54.6376 85.5757 54.4107L86.1069 53.4728C86.3171 53.6277 86.5578 53.755 86.829 53.8546C87.1001 53.9542 87.3436 54.004 87.5594 54.004C87.7032 54.004 87.8471 53.9846 87.991 53.9459C88.1404 53.9016 88.2621 53.8297 88.3562 53.7301C88.4558 53.6305 88.5056 53.4922 88.5056 53.3151C88.5056 53.1934 88.4641 53.0827 88.3811 52.9831C88.3036 52.8835 88.1957 52.7922 88.0574 52.7092C87.9246 52.6262 87.7779 52.5543 87.6175 52.4934C87.4293 52.4215 87.2357 52.3385 87.0365 52.2444C86.8373 52.1503 86.6491 52.0369 86.4721 51.9041C86.3005 51.7658 86.1594 51.597 86.0488 51.3978C85.9436 51.1931 85.8911 50.9441 85.8911 50.6508C85.8911 50.2967 85.9685 49.9896 86.1235 49.7295C86.2839 49.4694 86.508 49.2647 86.7958 49.1153C87.0835 48.9604 87.4155 48.8746 87.7918 48.858C88.2842 48.858 88.6826 48.9161 88.987 49.0323C89.2968 49.1485 89.5735 49.2868 89.817 49.4473L89.3605 50.3686ZM91.7094 54.2696C91.5877 54.5629 91.466 54.8534 91.3442 55.1411C91.2225 55.4288 91.1008 55.7193 90.979 56.0126H90.0494C90.1601 55.7193 90.268 55.4288 90.3731 55.1411C90.4838 54.8534 90.5945 54.5629 90.7051 54.2696H91.7094ZM95.5105 48.8912C96.1468 48.8912 96.6531 49.0212 97.0294 49.2813C97.4057 49.5358 97.5938 49.9176 97.5938 50.4267C97.5938 50.803 97.4997 51.1184 97.3116 51.3729C97.129 51.6219 96.8772 51.81 96.5563 51.9373C96.2409 52.059 95.8785 52.1199 95.469 52.1199L95.2781 51.4725C95.7816 51.4725 96.2271 51.5417 96.6144 51.68C97.0073 51.8183 97.3171 52.0175 97.544 52.2776C97.7709 52.5321 97.8843 52.8392 97.8843 53.1989C97.8843 53.5309 97.8234 53.8131 97.7017 54.0455C97.5855 54.2724 97.425 54.4577 97.2203 54.6016C97.0211 54.7399 96.7942 54.8423 96.5397 54.9087C96.2852 54.9696 96.0223 55 95.7512 55H93.7177V48.8912H95.5105ZM95.6516 51.3895C95.8895 51.3895 96.0638 51.3176 96.1745 51.1737C96.2907 51.0298 96.3488 50.8666 96.3488 50.684C96.3488 50.4737 96.2769 50.316 96.133 50.2109C95.9947 50.1058 95.8065 50.0532 95.5686 50.0532H94.9212V51.3895H95.6516ZM95.6931 53.8795C95.9587 53.8795 96.1828 53.8269 96.3654 53.7218C96.548 53.6111 96.6393 53.4368 96.6393 53.1989C96.6393 53.0218 96.5895 52.889 96.4899 52.8005C96.3903 52.7064 96.2603 52.6428 96.0998 52.6096C95.9449 52.5709 95.7816 52.5515 95.6101 52.5515H94.9212V53.8795H95.6931ZM100.943 48.8912C101.457 48.8912 101.891 48.977 102.246 49.1485C102.6 49.3145 102.868 49.5524 103.051 49.8623C103.239 50.1666 103.333 50.5291 103.333 50.9496C103.333 51.1986 103.294 51.4476 103.217 51.6966C103.145 51.9456 103.023 52.1725 102.852 52.3772C102.686 52.5819 102.464 52.7479 102.188 52.8752C101.911 52.9969 101.568 53.0578 101.158 53.0578H100.295V55H99.0916V48.8912H100.943ZM101.15 51.8958C101.393 51.8958 101.582 51.846 101.714 51.7464C101.853 51.6413 101.95 51.5195 102.005 51.3812C102.06 51.2373 102.088 51.1073 102.088 50.9911C102.088 50.9247 102.077 50.8417 102.055 50.7421C102.038 50.637 101.999 50.5318 101.939 50.4267C101.878 50.3216 101.784 50.233 101.656 50.1611C101.535 50.0892 101.369 50.0532 101.158 50.0532H100.295V51.8958H101.15ZM102.279 52.6428L103.789 55H102.387L100.843 52.676L102.279 52.6428ZM104.782 48.8912H108.948V50.0532H105.985V51.3563H108.608V52.5183H105.985V53.838H109.064V55H104.782V48.8912ZM109.621 55L112.376 48.6505H112.443L115.198 55H113.804L112.044 50.5346L112.916 49.937L110.808 55H109.621ZM111.505 52.7922H113.339L113.762 53.8048H111.131L111.505 52.7922ZM115.179 48.8912H119.296V50.0532H117.81V55H116.607V50.0532H115.179V48.8912ZM125.595 48.8912V55H124.392V52.5183H121.661V55H120.458V48.8912H121.661V51.3563H124.392V48.8912H125.595ZM127.169 48.8912H128.372V55H127.169V48.8912ZM135.419 55.249L130.787 51.0658L131.144 51.265L131.169 55H129.949V48.6505H129.999L134.531 52.8171L134.265 52.7009L134.24 48.8912H135.452V55.249H135.419ZM141.98 54.3858C141.908 54.4633 141.795 54.5435 141.64 54.6265C141.485 54.704 141.305 54.7759 141.101 54.8423C140.901 54.9087 140.697 54.9613 140.486 55C140.276 55.0443 140.077 55.0664 139.889 55.0664C139.23 55.0664 138.658 54.9391 138.171 54.6846C137.684 54.4301 137.307 54.0815 137.042 53.6388C136.782 53.1961 136.652 52.6898 136.652 52.1199C136.652 51.561 136.735 51.0769 136.901 50.6674C137.072 50.2524 137.302 49.9093 137.59 49.6382C137.883 49.3615 138.218 49.1568 138.594 49.024C138.976 48.8912 139.374 48.8248 139.789 48.8248C140.182 48.8248 140.542 48.8691 140.868 48.9576C141.195 49.0406 141.471 49.1457 141.698 49.273L141.308 50.3935C141.208 50.3382 141.076 50.2828 140.91 50.2275C140.744 50.1722 140.575 50.1279 140.403 50.0947C140.232 50.056 140.08 50.0366 139.947 50.0366C139.51 50.0366 139.136 50.1113 138.826 50.2607C138.522 50.4046 138.29 50.6231 138.129 50.9164C137.974 51.2097 137.897 51.5749 137.897 52.012C137.897 52.3938 137.982 52.723 138.154 52.9997C138.326 53.2764 138.563 53.4894 138.868 53.6388C139.178 53.7882 139.529 53.8629 139.922 53.8629C140.093 53.8629 140.251 53.8518 140.395 53.8297C140.539 53.802 140.661 53.7605 140.76 53.7052V52.9665H139.706V51.8045H141.98V54.3858ZM144.426 48.8912H145.629V53.838H148.501V55H144.426V48.8912ZM149.743 48.8912H150.946V55H149.743V48.8912ZM152.523 48.8912H156.341V50.0532H153.726V51.4393H155.992V52.6013H153.726V55H152.523V48.8912ZM157.5 48.8912H161.666V50.0532H158.703V51.3563H161.326V52.5183H158.703V53.838H161.782V55H157.5V48.8912ZM164.106 48.8912H165.309V55H164.106V48.8912ZM172.355 55.249L167.724 51.0658L168.081 51.265L168.106 55H166.886V48.6505H166.936L171.467 52.8171L171.202 52.7009L171.177 48.8912H172.389V55.249H172.355ZM173.547 48.8912H177.664V50.0532H176.178V55H174.974V50.0532H173.547V48.8912ZM178.241 51.9539C178.241 51.5334 178.321 51.135 178.482 50.7587C178.642 50.3824 178.863 50.0504 179.146 49.7627C179.433 49.4694 179.765 49.2398 180.142 49.0738C180.518 48.9078 180.919 48.8248 181.345 48.8248C181.777 48.8248 182.181 48.9078 182.557 49.0738C182.933 49.2398 183.265 49.4694 183.553 49.7627C183.846 50.0504 184.073 50.3824 184.233 50.7587C184.399 51.135 184.482 51.5334 184.482 51.9539C184.482 52.3855 184.399 52.7894 184.233 53.1657C184.073 53.542 183.846 53.874 183.553 54.1617C183.265 54.4439 182.933 54.6652 182.557 54.8257C182.181 54.9862 181.779 55.0664 181.353 55.0664C180.922 55.0664 180.518 54.9862 180.142 54.8257C179.765 54.6652 179.433 54.4439 179.146 54.1617C178.863 53.874 178.642 53.542 178.482 53.1657C178.321 52.7894 178.241 52.3855 178.241 51.9539ZM179.486 51.9539C179.486 52.3136 179.569 52.6428 179.735 52.9416C179.906 53.2349 180.136 53.47 180.424 53.6471C180.712 53.8186 181.035 53.9044 181.395 53.9044C181.743 53.9044 182.056 53.8186 182.333 53.6471C182.615 53.47 182.836 53.2349 182.997 52.9416C183.157 52.6428 183.237 52.3136 183.237 51.9539C183.237 51.5832 183.154 51.2512 182.988 50.9579C182.822 50.6591 182.598 50.4239 182.316 50.2524C182.034 50.0753 181.716 49.9868 181.362 49.9868C181.008 49.9868 180.689 50.0753 180.407 50.2524C180.125 50.4239 179.901 50.6591 179.735 50.9579C179.569 51.2512 179.486 51.5832 179.486 51.9539ZM186.76 55V48.8912H188.586C189.201 48.8912 189.723 48.9825 190.155 49.1651C190.587 49.3477 190.933 49.5912 191.193 49.8955C191.458 50.1998 191.652 50.5401 191.774 50.9164C191.895 51.2927 191.956 51.6717 191.956 52.0535C191.956 52.5072 191.873 52.9167 191.707 53.2819C191.547 53.6416 191.325 53.9514 191.043 54.2115C190.761 54.466 190.435 54.6625 190.064 54.8008C189.693 54.9336 189.3 55 188.885 55H186.76ZM187.964 53.838H188.678C189.087 53.838 189.444 53.7688 189.748 53.6305C190.053 53.4866 190.288 53.2764 190.454 52.9997C190.625 52.723 190.711 52.38 190.711 51.9705C190.711 51.5721 190.645 51.2484 190.512 50.9994C190.385 50.7449 190.224 50.5484 190.031 50.4101C189.842 50.2718 189.649 50.1777 189.45 50.1279C189.25 50.0726 189.082 50.0449 188.943 50.0449H187.964V53.838ZM193.164 48.8912H197.33V50.0532H194.367V51.3563H196.99V52.5183H194.367V53.838H197.446V55H193.164V48.8912ZM201.954 50.3686C201.721 50.2413 201.483 50.1362 201.24 50.0532C201.002 49.9702 200.778 49.9287 200.567 49.9287C200.307 49.9287 200.103 49.9813 199.953 50.0864C199.804 50.1915 199.729 50.3492 199.729 50.5595C199.729 50.7034 199.784 50.8334 199.895 50.9496C200.011 51.0603 200.158 51.1599 200.335 51.2484C200.518 51.3369 200.706 51.4172 200.899 51.4891C201.137 51.5776 201.367 51.6911 201.588 51.8294C201.81 51.9622 201.992 52.1476 202.136 52.3855C202.28 52.6179 202.352 52.9278 202.352 53.3151C202.352 53.625 202.272 53.9127 202.111 54.1783C201.951 54.4439 201.716 54.6597 201.406 54.8257C201.096 54.9862 200.714 55.0664 200.26 55.0664C199.912 55.0664 199.555 55.0138 199.19 54.9087C198.83 54.8036 198.49 54.6376 198.169 54.4107L198.7 53.4728C198.91 53.6277 199.151 53.755 199.422 53.8546C199.693 53.9542 199.937 54.004 200.152 54.004C200.296 54.004 200.44 53.9846 200.584 53.9459C200.733 53.9016 200.855 53.8297 200.949 53.7301C201.049 53.6305 201.099 53.4922 201.099 53.3151C201.099 53.1934 201.057 53.0827 200.974 52.9831C200.897 52.8835 200.789 52.7922 200.65 52.7092C200.518 52.6262 200.371 52.5543 200.211 52.4934C200.022 52.4215 199.829 52.3385 199.63 52.2444C199.43 52.1503 199.242 52.0369 199.065 51.9041C198.894 51.7658 198.753 51.597 198.642 51.3978C198.537 51.1931 198.484 50.9441 198.484 50.6508C198.484 50.2967 198.562 49.9896 198.717 49.7295C198.877 49.4694 199.101 49.2647 199.389 49.1153C199.677 48.9604 200.009 48.8746 200.385 48.858C200.877 48.858 201.276 48.9161 201.58 49.0323C201.89 49.1485 202.167 49.2868 202.41 49.4473L201.954 50.3686ZM203.531 48.8912H204.734V55H203.531V48.8912ZM211.266 54.3858C211.194 54.4633 211.081 54.5435 210.926 54.6265C210.771 54.704 210.591 54.7759 210.386 54.8423C210.187 54.9087 209.982 54.9613 209.772 55C209.562 55.0443 209.362 55.0664 209.174 55.0664C208.516 55.0664 207.943 54.9391 207.456 54.6846C206.969 54.4301 206.593 54.0815 206.327 53.6388C206.067 53.1961 205.937 52.6898 205.937 52.1199C205.937 51.561 206.02 51.0769 206.186 50.6674C206.358 50.2524 206.587 49.9093 206.875 49.6382C207.168 49.3615 207.503 49.1568 207.879 49.024C208.261 48.8912 208.66 48.8248 209.075 48.8248C209.468 48.8248 209.827 48.8691 210.154 48.9576C210.48 49.0406 210.757 49.1457 210.984 49.273L210.594 50.3935C210.494 50.3382 210.361 50.2828 210.195 50.2275C210.029 50.1722 209.86 50.1279 209.689 50.0947C209.517 50.056 209.365 50.0366 209.232 50.0366C208.795 50.0366 208.422 50.1113 208.112 50.2607C207.808 50.4046 207.575 50.6231 207.415 50.9164C207.26 51.2097 207.182 51.5749 207.182 52.012C207.182 52.3938 207.268 52.723 207.44 52.9997C207.611 53.2764 207.849 53.4894 208.153 53.6388C208.463 53.7882 208.815 53.8629 209.207 53.8629C209.379 53.8629 209.537 53.8518 209.681 53.8297C209.824 53.802 209.946 53.7605 210.046 53.7052V52.9665H208.992V51.8045H211.266V54.3858ZM218.103 55.249L213.471 51.0658L213.828 51.265L213.853 55H212.633V48.6505H212.683L217.215 52.8171L216.949 52.7009L216.924 48.8912H218.136V55.249H218.103Z" fill="white"/>
</svg>
