<svg width="41" height="41" viewBox="0 0 41 41" fill="none" xmlns="http://www.w3.org/2000/svg">
<rect x="0.5" y="0.5" width="40" height="40" rx="20" fill="black"/>
<g clip-path="url(#clip0_6309_947)">
<path d="M27.0625 20.5C27.0625 21.3477 26.9167 22.1497 26.625 22.9062C26.3333 23.6628 25.93 24.3372 25.415 24.9297C24.9001 25.5221 24.2962 26.0189 23.6035 26.4199C22.9017 26.8118 22.1497 27.0716 21.3477 27.1992V22.4551H22.9199L23.2207 20.5H21.3477V19.2285C21.3477 18.9551 21.4251 18.709 21.5801 18.4902C21.735 18.2715 22.0221 18.1621 22.4414 18.1621H23.3027V16.4941C23.3027 16.4941 23.1432 16.4736 22.8242 16.4326C22.5052 16.3916 22.1589 16.3711 21.7852 16.3711C21.0104 16.3711 20.3883 16.5967 19.9189 17.0479C19.4495 17.499 19.2148 18.153 19.2148 19.0098V20.5H17.4922V22.4551H19.2148V27.1992C18.4128 27.0716 17.6608 26.8118 16.959 26.4199C16.2663 26.0189 15.6624 25.5221 15.1475 24.9297C14.6325 24.3372 14.2292 23.6628 13.9375 22.9062C13.6458 22.1497 13.5 21.3477 13.5 20.5C13.5 19.5612 13.6777 18.6816 14.0332 17.8613C14.3887 17.041 14.874 16.3232 15.4893 15.708C16.1045 15.0928 16.8223 14.6074 17.6426 14.252C18.4629 13.8965 19.3424 13.7188 20.2812 13.7188C21.2201 13.7188 22.0996 13.8965 22.9199 14.252C23.7402 14.6074 24.458 15.0928 25.0732 15.708C25.6885 16.3232 26.1738 17.041 26.5293 17.8613C26.8848 18.6816 27.0625 19.5612 27.0625 20.5Z" fill="white"/>
</g>
<defs>
<clipPath id="clip0_6309_947">
<rect width="14" height="14" fill="white" transform="matrix(1 0 0 -1 13.5 27.5)"/>
</clipPath>
</defs>
</svg>
