<svg width="30" height="30" viewBox="0 0 30 30" fill="none" xmlns="http://www.w3.org/2000/svg">
<rect width="30" height="30" rx="15" fill="black"/>
<g clip-path="url(#clip0_7044_144)">
<path d="M12.1094 26.5961C13.9687 26.5961 15.4688 24.989 15.4688 22.9968V19.3975H12.1094C10.25 19.3975 8.75 21.0046 8.75 22.9968C8.75 24.989 10.25 26.5961 12.1094 26.5961Z" fill="#0ACF83"/>
<path d="M8.75 15.7976C8.75 13.8054 10.25 12.1982 12.1094 12.1982H15.4688V19.3969H12.1094C10.25 19.3969 8.75 17.7898 8.75 15.7976Z" fill="#A259FF"/>
<path d="M8.75 8.59933C8.75 6.60714 10.25 5 12.1094 5H15.4688V12.1987H12.1094C10.25 12.1987 8.75 10.5915 8.75 8.59933Z" fill="#F24E1E"/>
<path d="M15.4688 5H18.8281C20.6875 5 22.1875 6.60714 22.1875 8.59933C22.1875 10.5915 20.6875 12.1987 18.8281 12.1987H15.4688V5Z" fill="#FF7262"/>
<path d="M22.1875 15.7976C22.1875 17.7898 20.6875 19.3969 18.8281 19.3969C16.9688 19.3969 15.4688 17.7898 15.4688 15.7976C15.4688 13.8054 16.9688 12.1982 18.8281 12.1982C20.6875 12.1982 22.1875 13.8054 22.1875 15.7976Z" fill="#1ABCFE"/>
</g>
<defs>
<clipPath id="clip0_7044_144">
<rect width="20" height="21.4286" fill="white" transform="translate(5 5)"/>
</clipPath>
</defs>
</svg>
