<svg width="41" height="41" viewBox="0 0 41 41" fill="none" xmlns="http://www.w3.org/2000/svg">
<rect x="0.5" y="0.5" width="40" height="40" rx="20" fill="black"/>
<path d="M20 14C19.0807 14 18.1705 14.1856 17.3212 14.5461C16.4719 14.9066 15.7003 15.435 15.0503 16.1012C13.7375 17.4465 13 19.2712 13 21.1738C13 24.3446 15.009 27.0348 17.788 27.9889C18.138 28.0463 18.25 27.8239 18.25 27.6302V26.4178C16.311 26.8483 15.898 25.4565 15.898 25.4565C15.576 24.6244 15.121 24.402 15.121 24.402C14.484 23.9572 15.17 23.9716 15.17 23.9716C15.87 24.0218 16.241 24.7105 16.241 24.7105C16.85 25.8009 17.879 25.4781 18.278 25.3059C18.341 24.8396 18.523 24.5239 18.719 24.3446C17.165 24.1653 15.534 23.5483 15.534 20.8151C15.534 20.0188 15.8 19.3803 16.255 18.871C16.185 18.6917 15.94 17.9456 16.325 16.9771C16.325 16.9771 16.913 16.7834 18.25 17.7088C18.803 17.551 19.405 17.4721 20 17.4721C20.595 17.4721 21.197 17.551 21.75 17.7088C23.087 16.7834 23.675 16.9771 23.675 16.9771C24.06 17.9456 23.815 18.6917 23.745 18.871C24.2 19.3803 24.466 20.0188 24.466 20.8151C24.466 23.5555 22.828 24.1581 21.267 24.3374C21.519 24.5598 21.75 24.9974 21.75 25.6646V27.6302C21.75 27.8239 21.862 28.0535 22.219 27.9889C24.998 27.0276 27 24.3446 27 21.1738C27 20.2317 26.8189 19.2989 26.4672 18.4285C26.1154 17.5581 25.5998 16.7673 24.9497 16.1012C24.2997 15.435 23.5281 14.9066 22.6788 14.5461C21.8295 14.1856 20.9193 14 20 14Z" fill="white"/>
</svg>
