<svg width="41" height="41" viewBox="0 0 41 41" fill="none" xmlns="http://www.w3.org/2000/svg">
<rect x="0.5" y="0.5" width="40" height="40" rx="20" fill="black"/>
<g clip-path="url(#clip0_6309_954)">
<path d="M19.625 17.3555C20.0625 17.3555 20.4727 17.4375 20.8555 17.6016C21.2383 17.7656 21.571 17.9889 21.8535 18.2715C22.1361 18.554 22.3594 18.8867 22.5234 19.2695C22.6875 19.6523 22.7695 20.0625 22.7695 20.5C22.7695 20.9284 22.6875 21.334 22.5234 21.7168C22.3594 22.0996 22.1361 22.4346 21.8535 22.7217C21.571 23.0088 21.2383 23.2344 20.8555 23.3984C20.4727 23.5625 20.0625 23.6445 19.625 23.6445C19.1966 23.6445 18.791 23.5625 18.4082 23.3984C18.0254 23.2344 17.6904 23.0088 17.4033 22.7217C17.1162 22.4346 16.8906 22.0996 16.7266 21.7168C16.5625 21.334 16.4805 20.9284 16.4805 20.5C16.4805 20.0625 16.5625 19.6523 16.7266 19.2695C16.8906 18.8867 17.1162 18.554 17.4033 18.2715C17.6904 17.9889 18.0254 17.7656 18.4082 17.6016C18.791 17.4375 19.1966 17.3555 19.625 17.3555ZM19.625 22.5371C20.1901 22.5371 20.6732 22.3389 21.0742 21.9424C21.4753 21.5459 21.6758 21.0651 21.6758 20.5C21.6758 19.9349 21.4753 19.4518 21.0742 19.0508C20.6732 18.6497 20.1901 18.4492 19.625 18.4492C19.0599 18.4492 18.5791 18.6497 18.1826 19.0508C17.7861 19.4518 17.5879 19.9349 17.5879 20.5C17.5879 21.0651 17.7884 21.5459 18.1895 21.9424C18.5905 22.3389 19.069 22.5371 19.625 22.5371ZM23.6309 17.2324C23.6309 17.4329 23.5602 17.6038 23.4189 17.7451C23.2777 17.8864 23.1022 17.957 22.8926 17.957C22.6921 17.957 22.5212 17.8864 22.3799 17.7451C22.2386 17.6038 22.168 17.4329 22.168 17.2324C22.168 17.0228 22.2386 16.8473 22.3799 16.7061C22.5212 16.5648 22.6921 16.4941 22.8926 16.4941C23.1022 16.4941 23.2777 16.5648 23.4189 16.7061C23.5602 16.8473 23.6309 17.0228 23.6309 17.2324ZM25.709 17.9707C25.7272 18.2259 25.7409 18.5859 25.75 19.0508C25.75 19.5065 25.75 19.9873 25.75 20.4932C25.75 20.999 25.75 21.4844 25.75 21.9492C25.7409 22.4141 25.7272 22.7741 25.709 23.0293C25.6908 23.5124 25.611 23.9704 25.4697 24.4033C25.3285 24.8363 25.0801 25.2305 24.7246 25.5859C24.3691 25.9505 23.9749 26.2012 23.542 26.3379C23.109 26.4746 22.6465 26.5566 22.1543 26.584C21.8991 26.5931 21.5391 26.6022 21.0742 26.6113C20.6185 26.6204 20.1377 26.625 19.6318 26.625C19.126 26.625 18.6406 26.6204 18.1758 26.6113C17.7109 26.6022 17.3509 26.5931 17.0957 26.584C16.6035 26.5566 16.1432 26.4746 15.7148 26.3379C15.2865 26.2012 14.89 25.9505 14.5254 25.5859C14.1699 25.2305 13.9238 24.8363 13.7871 24.4033C13.6504 23.9704 13.5684 23.5124 13.541 23.0293C13.5228 22.7741 13.5137 22.4141 13.5137 21.9492C13.5046 21.4844 13.5 20.999 13.5 20.4932C13.5 19.9873 13.5046 19.502 13.5137 19.0371C13.5137 18.5814 13.5228 18.2259 13.541 17.9707C13.5684 17.4785 13.6504 17.016 13.7871 16.583C13.9238 16.1501 14.1699 15.7559 14.5254 15.4004C14.89 15.0449 15.2887 14.7965 15.7217 14.6553C16.1546 14.514 16.6126 14.4342 17.0957 14.416C17.3509 14.3978 17.7109 14.3841 18.1758 14.375C18.6406 14.375 19.126 14.375 19.6318 14.375C20.1377 14.375 20.6185 14.375 21.0742 14.375C21.5391 14.3841 21.8991 14.3978 22.1543 14.416C22.6465 14.4434 23.109 14.5254 23.542 14.6621C23.9749 14.7988 24.3691 15.0449 24.7246 15.4004C25.0801 15.765 25.3285 16.1615 25.4697 16.5898C25.611 17.0182 25.6908 17.4785 25.709 17.9707ZM24.4102 24.1094C24.4831 23.9089 24.5378 23.6491 24.5742 23.3301C24.6107 23.0111 24.6357 22.6784 24.6494 22.332C24.6631 21.9857 24.6654 21.6484 24.6562 21.3203C24.6562 20.9922 24.6562 20.7188 24.6562 20.5C24.6562 20.2721 24.6562 19.9941 24.6562 19.666C24.6654 19.3379 24.6631 19.0007 24.6494 18.6543C24.6357 18.3079 24.6107 17.9798 24.5742 17.6699C24.5378 17.3509 24.4831 17.0911 24.4102 16.8906C24.3008 16.6172 24.1458 16.3802 23.9453 16.1797C23.7448 15.9792 23.5078 15.8242 23.2344 15.7148C23.0339 15.6419 22.7741 15.5872 22.4551 15.5508C22.1452 15.5143 21.8171 15.4893 21.4707 15.4756C21.1243 15.4619 20.7871 15.4596 20.459 15.4688C20.1309 15.4688 19.8529 15.4688 19.625 15.4688C19.4062 15.4688 19.1328 15.4688 18.8047 15.4688C18.4766 15.4596 18.1393 15.4619 17.793 15.4756C17.4466 15.4893 17.1139 15.5143 16.7949 15.5508C16.4759 15.5872 16.2161 15.6419 16.0156 15.7148C15.7422 15.8242 15.5052 15.9792 15.3047 16.1797C15.1042 16.3802 14.9538 16.6172 14.8535 16.8906C14.7715 17.0911 14.7122 17.3509 14.6758 17.6699C14.6393 17.9798 14.6165 18.3079 14.6074 18.6543C14.5983 19.0007 14.5938 19.3379 14.5938 19.666C14.6029 19.9941 14.6074 20.2721 14.6074 20.5C14.6074 20.7188 14.6029 20.9922 14.5938 21.3203C14.5938 21.6484 14.5983 21.9857 14.6074 22.332C14.6165 22.6784 14.6393 23.0111 14.6758 23.3301C14.7122 23.6491 14.7715 23.9089 14.8535 24.1094C14.9629 24.3828 15.1178 24.6175 15.3184 24.8135C15.5189 25.0094 15.7513 25.1621 16.0156 25.2715C16.2161 25.3535 16.4759 25.4128 16.7949 25.4492C17.1139 25.4857 17.4466 25.5085 17.793 25.5176C18.1393 25.5267 18.4766 25.5312 18.8047 25.5312C19.1328 25.5221 19.4062 25.5176 19.625 25.5176C19.8529 25.5176 20.1309 25.5221 20.459 25.5312C20.7871 25.5312 21.1243 25.5267 21.4707 25.5176C21.8171 25.5085 22.1452 25.4857 22.4551 25.4492C22.7741 25.4128 23.0339 25.3535 23.2344 25.2715C23.5078 25.1621 23.7448 25.0072 23.9453 24.8066C24.1458 24.6061 24.3008 24.3737 24.4102 24.1094Z" fill="white"/>
</g>
<defs>
<clipPath id="clip0_6309_954">
<rect width="14" height="14" fill="white" transform="matrix(1 0 0 -1 13.5 27.5)"/>
</clipPath>
</defs>
</svg>
