<svg width="41" height="41" viewBox="0 0 41 41" fill="none" xmlns="http://www.w3.org/2000/svg">
<rect x="0.5" y="0.5" width="40" height="40" rx="20" fill="black"/>
<path d="M15.3684 16.6667C16.1242 16.6667 16.7368 16.0697 16.7368 15.3333C16.7368 14.597 16.1242 14 15.3684 14C14.6127 14 14 14.597 14 15.3333C14 16.0697 14.6127 16.6667 15.3684 16.6667Z" stroke="white"/>
<path d="M14 18.667H16.7368V27.0003H14V18.667ZM19.4737 21.8337V27.0003H21.8684V22.3337C21.8684 21.5003 22.3816 20.8337 23.2368 20.8337C24.0921 20.8337 24.6053 21.667 24.6053 22.3337V27.0003H27V21.8337C27 20.8337 25.8026 18.667 23.2368 18.667C20.6711 18.667 19.4737 20.8337 19.4737 21.8337Z" stroke="white" stroke-linejoin="round"/>
</svg>
