<svg width="65" height="65" viewBox="0 0 65 65" fill="none" xmlns="http://www.w3.org/2000/svg">
<path d="M0.5 32.6875C0.5 15.0144 14.8269 0.6875 32.5 0.6875C50.1731 0.6875 64.5 15.0144 64.5 32.6875C64.5 50.3606 50.1731 64.6875 32.5 64.6875C14.8269 64.6875 0.5 50.3606 0.5 32.6875Z" fill="#99DDFF"/>
<path d="M45.5 37.6875H44.5V25.6875C44.5 24.8549 44.2081 24.1468 43.6244 23.5631C43.0407 22.9794 42.3326 22.6875 41.5 22.6875H23.5C22.6674 22.6875 21.9593 22.9794 21.3756 23.5631C20.7919 24.1468 20.5 24.8549 20.5 25.6875V37.6875H19.5C19.2304 37.6875 18.9963 37.7868 18.7978 37.9853C18.5993 38.1838 18.5 38.4179 18.5 38.6875V40.6875C18.5 41.5201 18.7919 42.2282 19.3756 42.8119C19.9593 43.3956 20.6674 43.6875 21.5 43.6875H43.5C44.3326 43.6875 45.0407 43.3956 45.6244 42.8119C46.2081 42.2282 46.5 41.5201 46.5 40.6875V38.6875C46.5 38.4179 46.4007 38.1838 46.2022 37.9853C46.0037 37.7868 45.7696 37.6875 45.5 37.6875ZM22.5 37.6875V25.6875C22.5 25.4179 22.5993 25.1838 22.7978 24.9853C22.9963 24.7868 23.2304 24.6875 23.5 24.6875H41.5C41.7696 24.6875 42.0037 24.7868 42.2022 24.9853C42.4007 25.1838 42.5 25.4179 42.5 25.6875V37.6875H22.5ZM44.5 39.6875V40.6875C44.5 40.9571 44.4007 41.1912 44.2022 41.3897C44.0037 41.5882 43.7696 41.6875 43.5 41.6875H21.5C21.2304 41.6875 20.9963 41.5882 20.7978 41.3897C20.5993 41.1912 20.5 40.9571 20.5 40.6875V39.6875H44.5ZM35.5 27.6875C35.5 27.9571 35.4007 28.1912 35.2022 28.3897C35.0037 28.5882 34.7696 28.6875 34.5 28.6875H30.5C30.2304 28.6875 29.9963 28.5882 29.7978 28.3897C29.5993 28.1912 29.5 27.9571 29.5 27.6875C29.5 27.4179 29.5993 27.1838 29.7978 26.9853C29.9963 26.7868 30.2304 26.6875 30.5 26.6875H34.5C34.7696 26.6875 35.0037 26.7868 35.2022 26.9853C35.4007 27.1838 35.5 27.4179 35.5 27.6875Z" fill="#343332"/>
</svg>
