<svg width="30" height="30" viewBox="0 0 30 30" fill="none" xmlns="http://www.w3.org/2000/svg">
<g clip-path="url(#clip0_7044_132)">
<path d="M22.9688 0H7.03125C3.148 0 0 3.148 0 7.03125V22.9688C0 26.852 3.148 30 7.03125 30H22.9688C26.852 30 30 26.852 30 22.9688V7.03125C30 3.148 26.852 0 22.9688 0Z" fill="#242938"/>
<path d="M15.0002 17.2211C16.2077 17.2211 17.1865 16.2423 17.1865 15.0349C17.1865 13.8275 16.2077 12.8486 15.0002 12.8486C13.7927 12.8486 12.814 13.8275 12.814 15.0349C12.814 16.2423 13.7928 17.2211 15.0002 17.2211Z" fill="#00D8FF"/>
<path d="M15.0002 10.5898C17.9355 10.5898 20.6624 11.011 22.7184 11.7189C25.1957 12.5717 26.7188 13.8644 26.7188 15.035C26.7188 16.2548 25.1046 17.6281 22.4443 18.5095C20.4332 19.1758 17.7866 19.5236 15.0002 19.5236C12.1434 19.5236 9.43816 19.1971 7.40426 18.5021C4.83105 17.6226 3.28125 16.2316 3.28125 15.035C3.28125 13.8739 4.73555 12.5912 7.17797 11.7397C9.24164 11.0202 12.0357 10.5898 14.9998 10.5898H15.0002Z" stroke="#00D8FF" stroke-width="0.556938"/>
<path d="M11.1305 12.8248C12.597 10.282 14.324 8.13023 15.9644 6.70289C17.9407 4.98293 19.8215 4.30933 20.8354 4.89398C21.8921 5.50336 22.2754 7.58789 21.71 10.3327C21.2828 12.4077 20.2617 14.874 18.8696 17.2878C17.4424 19.7626 15.8082 21.943 14.1902 23.3572C12.1428 25.1469 10.1634 25.7946 9.12687 25.1968C8.12105 24.6172 7.73644 22.7163 8.21901 20.1751C8.62671 18.0279 9.64987 15.3925 11.1301 12.8248H11.1305Z" stroke="#00D8FF" stroke-width="0.556938"/>
<path d="M11.1342 17.294C9.66359 14.7541 8.66234 12.1827 8.24445 10.0488C7.74136 7.47755 8.09703 5.51173 9.11011 4.92533C10.1659 4.31408 12.1631 5.02306 14.2586 6.88376C15.843 8.29048 17.4699 10.4065 18.866 12.818C20.2973 15.2904 21.37 17.7953 21.7873 19.9033C22.3154 22.571 21.888 24.6092 20.8524 25.2086C19.8477 25.7903 18.0089 25.1745 16.0482 23.4872C14.3916 22.0618 12.6193 19.8592 11.1342 17.294Z" stroke="#00D8FF" stroke-width="0.556938"/>
</g>
<defs>
<clipPath id="clip0_7044_132">
<rect width="30" height="30" fill="white"/>
</clipPath>
</defs>
</svg>
