<svg width="65" height="65" viewBox="0 0 65 65" fill="none" xmlns="http://www.w3.org/2000/svg">
<path d="M0.828125 32.6875C0.828125 15.0144 15.155 0.6875 32.8281 0.6875C50.5012 0.6875 64.8281 15.0144 64.8281 32.6875C64.8281 50.3606 50.5012 64.6875 32.8281 64.6875C15.155 64.6875 0.828125 50.3606 0.828125 32.6875Z" fill="#99DDFF"/>
<path d="M47.8281 30.6875H44.3303L38.3926 22.5008C38.2029 22.249 37.9674 22.0505 37.6859 21.9053C37.4044 21.7601 37.1081 21.6875 36.797 21.6875C36.4859 21.6875 36.194 21.7556 35.9215 21.8919C35.6518 22.0253 35.4222 22.1971 35.2326 22.4075L33.6103 24.3142C33.5066 24.4386 33.3911 24.5319 33.2637 24.5942C33.1392 24.6564 32.9941 24.6875 32.8281 24.6875C32.6622 24.6875 32.517 24.6564 32.3926 24.5942C32.2652 24.5319 32.1496 24.4386 32.0459 24.3142L32.0148 24.2831L30.4237 22.4075C30.2341 22.1971 30.0044 22.0253 29.7348 21.8919C29.4652 21.7556 29.1733 21.6875 28.8592 21.6875C28.5481 21.6875 28.2518 21.7601 27.9703 21.9053C27.6889 22.0505 27.4533 22.249 27.2637 22.5008L21.3303 30.6875H17.8281C17.5585 30.6875 17.3244 30.7868 17.1259 30.9853C16.9274 31.1838 16.8281 31.4179 16.8281 31.6875C16.8281 31.9571 16.9274 32.1912 17.1259 32.3897C17.3244 32.5882 17.5585 32.6875 17.8281 32.6875H47.8281C48.0978 32.6875 48.3318 32.5882 48.5303 32.3897C48.7289 32.1912 48.8281 31.9571 48.8281 31.6875C48.8281 31.4179 48.7289 31.1838 48.5303 30.9853C48.3318 30.7868 48.0978 30.6875 47.8281 30.6875ZM23.797 30.6875L28.8592 23.6875L28.8903 23.7186L30.517 25.5631C30.7866 25.9156 31.1244 26.1912 31.5303 26.3897C31.9363 26.5882 32.3689 26.6875 32.8281 26.6875C33.2874 26.6875 33.72 26.5882 34.1259 26.3897C34.5318 26.1912 34.8696 25.926 35.1392 25.5942V25.5631L36.7659 23.7186C36.7659 23.7186 36.7659 23.7142 36.7659 23.7053C36.7659 23.6934 36.7763 23.6875 36.797 23.6875L41.8592 30.6875H23.797ZM39.3303 34.6875C38.1837 34.6875 37.1837 35.0727 36.3303 35.8431C35.4741 36.6134 34.9837 37.5512 34.8592 38.6564V38.6875H30.797C30.6726 37.5616 30.1837 36.6134 29.3303 35.8431C28.4741 35.0727 27.4741 34.6875 26.3303 34.6875C25.08 34.6875 24.0163 35.1245 23.1392 35.9986C22.2652 36.8756 21.8281 37.9394 21.8281 39.1897C21.8281 40.4371 22.2652 41.4994 23.1392 42.3764C24.0163 43.2505 25.08 43.6875 26.3303 43.6875C27.3081 43.6875 28.1778 43.4119 28.9392 42.8608C29.6978 42.3068 30.2341 41.5927 30.5481 40.7186L30.5792 40.6875H35.077C35.4118 41.5616 35.9585 42.2801 36.717 42.8431C37.4785 43.406 38.3496 43.6875 39.3303 43.6875C40.5778 43.6875 41.64 43.2505 42.517 42.3764C43.3911 41.4994 43.8281 40.4371 43.8281 39.1897C43.8281 37.9394 43.3911 36.8756 42.517 35.9986C41.64 35.1245 40.5778 34.6875 39.3303 34.6875ZM26.3303 41.6875C25.64 41.6875 25.0503 41.4431 24.5615 40.9542C24.0726 40.4653 23.8281 39.8771 23.8281 39.1897C23.8281 38.4994 24.0726 37.9097 24.5615 37.4208C25.0503 36.9319 25.64 36.6875 26.3303 36.6875C27.0178 36.6875 27.6059 36.9319 28.0948 37.4208C28.5837 37.9097 28.8281 38.4994 28.8281 39.1897C28.8281 39.8771 28.5837 40.4653 28.0948 40.9542C27.6059 41.4431 27.0178 41.6875 26.3303 41.6875ZM39.3303 41.6875C38.64 41.6875 38.0503 41.4431 37.5615 40.9542C37.0726 40.4653 36.8281 39.8771 36.8281 39.1897C36.8281 38.4994 37.0726 37.9097 37.5615 37.4208C38.0503 36.9319 38.64 36.6875 39.3303 36.6875C40.0178 36.6875 40.6059 36.9319 41.0948 37.4208C41.5837 37.9097 41.8281 38.4994 41.8281 39.1897C41.8281 39.8771 41.5837 40.4653 41.0948 40.9542C40.6059 41.4431 40.0178 41.6875 39.3303 41.6875Z" fill="#343332"/>
</svg>
